<svg width="344" height="205" viewBox="0 0 344 205" fill="none" xmlns="http://www.w3.org/2000/svg">
<path d="M110.232 71.8281C109.783 71.8281 109.353 71.8672 108.943 71.9453C108.553 72.0039 108.182 72.1309 107.83 72.3262C107.478 72.5215 107.137 72.7949 106.805 73.1465C106.492 73.4785 106.189 73.918 105.896 74.4648C105.721 74.7969 105.467 75.373 105.135 76.1934C104.803 76.9941 104.422 78.0391 103.992 79.3281L92.9472 111.438H91.746L82.7519 86.0371L73.7284 111.438H72.6151L60.8671 78.3906C60.4765 77.2969 60.1542 76.4277 59.9003 75.7832C59.6659 75.1387 59.4706 74.6406 59.3144 74.2891C59.1581 73.9375 59.0116 73.6836 58.8749 73.5273C58.7577 73.3516 58.6112 73.2051 58.4355 73.0879C58.0839 72.6387 57.6151 72.3164 57.0292 72.1211C56.4628 71.9258 55.7401 71.8281 54.8612 71.8281V70.7734H69.5097V71.8281H68.8065C67.3808 71.8281 66.4433 72.2676 65.994 73.1465C65.8964 73.3418 65.8183 73.5469 65.7597 73.7617C65.7206 73.9766 65.7304 74.2891 65.789 74.6992C65.8476 75.0898 65.9648 75.6172 66.1405 76.2812C66.3358 76.9453 66.619 77.8242 66.9901 78.918L74.7538 101.242L81.3749 82.2871C80.9452 80.8223 80.4765 79.4551 79.9687 78.1855C79.7538 77.6387 79.5292 77.0918 79.2948 76.5449C79.0605 75.998 78.8065 75.4805 78.5331 74.9922C78.2792 74.5039 78.0155 74.0742 77.7421 73.7031C77.4882 73.3125 77.2245 73.0098 76.9511 72.7949C76.5605 72.4629 76.1308 72.2188 75.662 72.0625C75.2128 71.9062 74.5683 71.8281 73.7284 71.8281V70.7734H89.1972V71.8281H88.1718C86.0624 71.8281 85.0077 72.6875 85.0077 74.4062C85.0077 74.9336 85.1054 75.627 85.3007 76.4863C85.496 77.3262 85.8183 78.3613 86.2675 79.5918L93.9433 101.242L101.502 79.3281C101.795 78.4492 102.039 77.6777 102.234 77.0137C102.449 76.3496 102.596 75.7734 102.674 75.2852C102.752 74.7969 102.762 74.377 102.703 74.0254C102.664 73.6738 102.537 73.3613 102.322 73.0879C101.951 72.5801 101.434 72.248 100.769 72.0918C100.105 71.916 99.3144 71.8281 98.3964 71.8281V70.7734H110.232V71.8281ZM111.954 110.5V109.387H113.389C114.21 109.387 114.903 109.279 115.469 109.064C116.036 108.83 116.514 108.459 116.905 107.951C117.374 107.404 117.608 105.9 117.608 103.439V77.7754C117.608 77.0918 117.598 76.5156 117.579 76.0469C117.579 75.5586 117.559 75.1484 117.52 74.8164C117.481 74.4648 117.413 74.1719 117.315 73.9375C117.237 73.7031 117.12 73.498 116.964 73.3223C116.592 72.8535 116.075 72.4922 115.411 72.2383C114.747 71.9648 114.073 71.8281 113.389 71.8281H111.954V70.7734H128.975V71.8281H127.54C125.977 71.8281 124.805 72.3066 124.024 73.2637C123.809 73.5957 123.634 74.1328 123.497 74.875C123.36 75.6172 123.292 76.584 123.292 77.7754V103.439C123.292 104.729 123.35 105.725 123.467 106.428C123.585 107.131 123.751 107.658 123.966 108.01C124.063 108.166 124.239 108.332 124.493 108.508C124.747 108.664 125.04 108.811 125.372 108.947C125.723 109.064 126.085 109.172 126.456 109.27C126.827 109.348 127.188 109.387 127.54 109.387H128.975V110.5H111.954ZM162.015 110.5H131.4V109.387H132.777C132.953 109.387 133.167 109.377 133.421 109.357C133.695 109.318 133.978 109.27 134.271 109.211C134.584 109.133 134.886 109.035 135.179 108.918C135.472 108.801 135.716 108.654 135.912 108.479C136.107 108.303 136.273 108.107 136.41 107.893C136.566 107.678 136.693 107.385 136.791 107.014C136.888 106.643 136.957 106.174 136.996 105.607C137.054 105.041 137.084 104.318 137.084 103.439V77.6582C137.084 76.3691 137.015 75.3438 136.878 74.582C136.742 73.8008 136.556 73.2832 136.322 73.0293C135.619 72.2285 134.437 71.8281 132.777 71.8281H131.4V70.7734H162.015L162.484 79.416H161.312C161.175 78.8496 161.048 78.3027 160.931 77.7754C160.834 77.2285 160.687 76.7109 160.492 76.2227C160.316 75.7344 160.082 75.2949 159.789 74.9043C159.496 74.4941 159.085 74.1426 158.558 73.8496C158.05 73.5566 157.396 73.332 156.595 73.1758C155.814 73 154.837 72.9121 153.666 72.9121H142.65V88.6152H151.41C152.757 88.6152 153.812 88.5078 154.574 88.293C155.355 88.0781 155.951 87.7363 156.361 87.2676C156.771 86.7988 157.054 86.2031 157.21 85.4805C157.386 84.7578 157.542 83.8984 157.679 82.9023H158.792V96.7012H157.679C157.542 95.666 157.386 94.7773 157.21 94.0352C157.035 93.293 156.742 92.6875 156.332 92.2188C155.921 91.7305 155.335 91.3789 154.574 91.1641C153.812 90.9297 152.757 90.8125 151.41 90.8125H142.65V105.695C142.65 106.223 142.738 106.691 142.914 107.102C143.109 107.492 143.441 107.805 143.91 108.039C144.378 108.254 145.082 108.361 146.019 108.361H152.728C153.802 108.361 154.75 108.322 155.57 108.244C156.39 108.146 157.123 107.99 157.767 107.775C158.431 107.561 159.017 107.268 159.525 106.896C160.052 106.506 160.56 106.027 161.048 105.461C161.556 104.875 162.064 104.182 162.572 103.381C163.08 102.561 163.646 101.604 164.271 100.51H165.472L162.015 110.5ZM204.459 101.184C203.483 102.922 202.428 104.436 201.295 105.725C200.162 106.994 198.922 108.059 197.575 108.918C196.227 109.758 194.762 110.383 193.18 110.793C191.598 111.223 189.869 111.438 187.994 111.438C185.963 111.438 184.078 111.184 182.34 110.676C180.602 110.188 179.01 109.504 177.565 108.625C176.139 107.727 174.869 106.652 173.756 105.402C172.662 104.152 171.735 102.785 170.973 101.301C170.211 99.7969 169.635 98.1953 169.244 96.4961C168.854 94.7773 168.659 93.0195 168.659 91.2227C168.659 88.332 169.137 85.5977 170.094 83.0195C171.071 80.4219 172.438 78.1465 174.196 76.1934C175.973 74.2402 178.112 72.6973 180.612 71.5645C183.112 70.4121 185.885 69.8359 188.932 69.8359C190.436 69.8359 191.754 69.9824 192.887 70.2754C194.039 70.5684 195.026 70.8906 195.846 71.2422C196.686 71.5742 197.379 71.8867 197.926 72.1797C198.473 72.4727 198.893 72.6191 199.186 72.6191C199.713 72.6191 200.192 72.3945 200.621 71.9453C201.071 71.4766 201.403 70.7734 201.617 69.8359H202.672L203.61 83.3418H202.672C202.067 81.3105 201.325 79.5723 200.446 78.127C199.567 76.6816 198.561 75.5 197.428 74.582C196.315 73.6641 195.084 72.9902 193.737 72.5605C192.389 72.1309 190.944 71.916 189.401 71.916C187.35 71.916 185.465 72.3066 183.746 73.0879C182.028 73.8496 180.543 75.0312 179.293 76.6328C178.063 78.2344 177.096 80.2461 176.393 82.668C175.69 85.0898 175.338 87.9609 175.338 91.2812C175.338 94.1133 175.69 96.623 176.393 98.8105C177.116 100.998 178.131 102.834 179.44 104.318C180.748 105.803 182.311 106.926 184.127 107.688C185.963 108.449 188.004 108.83 190.25 108.83C191.559 108.83 192.77 108.713 193.883 108.479C194.996 108.225 196.08 107.795 197.135 107.189C198.19 106.564 199.235 105.725 200.27 104.67C201.325 103.596 202.438 102.229 203.61 100.568L204.459 101.184ZM244.237 101.184C243.261 102.922 242.206 104.436 241.073 105.725C239.941 106.994 238.7 108.059 237.353 108.918C236.005 109.758 234.54 110.383 232.958 110.793C231.376 111.223 229.648 111.438 227.773 111.438C225.741 111.438 223.857 111.184 222.118 110.676C220.38 110.188 218.788 109.504 217.343 108.625C215.917 107.727 214.648 106.652 213.534 105.402C212.441 104.152 211.513 102.785 210.751 101.301C209.989 99.7969 209.413 98.1953 209.023 96.4961C208.632 94.7773 208.437 93.0195 208.437 91.2227C208.437 88.332 208.915 85.5977 209.872 83.0195C210.849 80.4219 212.216 78.1465 213.974 76.1934C215.751 74.2402 217.89 72.6973 220.39 71.5645C222.89 70.4121 225.663 69.8359 228.71 69.8359C230.214 69.8359 231.532 69.9824 232.665 70.2754C233.817 70.5684 234.804 70.8906 235.624 71.2422C236.464 71.5742 237.157 71.8867 237.704 72.1797C238.251 72.4727 238.671 72.6191 238.964 72.6191C239.491 72.6191 239.97 72.3945 240.4 71.9453C240.849 71.4766 241.181 70.7734 241.396 69.8359H242.45L243.388 83.3418H242.45C241.845 81.3105 241.103 79.5723 240.224 78.127C239.345 76.6816 238.339 75.5 237.206 74.582C236.093 73.6641 234.862 72.9902 233.515 72.5605C232.167 72.1309 230.722 71.916 229.179 71.916C227.128 71.916 225.243 72.3066 223.525 73.0879C221.806 73.8496 220.321 75.0312 219.071 76.6328C217.841 78.2344 216.874 80.2461 216.171 82.668C215.468 85.0898 215.116 87.9609 215.116 91.2812C215.116 94.1133 215.468 96.623 216.171 98.8105C216.894 100.998 217.909 102.834 219.218 104.318C220.526 105.803 222.089 106.926 223.905 107.688C225.741 108.449 227.782 108.83 230.028 108.83C231.337 108.83 232.548 108.713 233.661 108.479C234.775 108.225 235.859 107.795 236.913 107.189C237.968 106.564 239.013 105.725 240.048 104.67C241.103 103.596 242.216 102.229 243.388 100.568L244.237 101.184ZM287.824 71.8281C287.59 71.8281 287.277 71.877 286.887 71.9746C286.496 72.0723 286.076 72.2285 285.627 72.4434C285.197 72.6387 284.738 72.9023 284.25 73.2344C283.781 73.5469 283.342 73.9375 282.932 74.4062C282.521 74.8555 282.072 75.4219 281.584 76.1055C281.115 76.7891 280.578 77.6094 279.973 78.5664L270.334 93.625V103.557C270.334 106.057 270.617 107.6 271.184 108.186C271.867 108.986 273.049 109.387 274.728 109.387H275.988V110.5H259.142V109.387H260.519C261.359 109.387 262.062 109.27 262.629 109.035C263.195 108.801 263.684 108.41 264.094 107.863C264.269 107.551 264.406 107.053 264.504 106.369C264.601 105.666 264.65 104.729 264.65 103.557V94.1523L253.81 77.541C253.166 76.584 252.609 75.7734 252.141 75.1094C251.691 74.4258 251.193 73.8594 250.646 73.4102C250.139 73.0391 249.533 72.6875 248.83 72.3555C248.127 72.0039 247.375 71.8281 246.574 71.8281V70.7734H263.654V71.8281H262.775C262.502 71.8281 262.15 71.8672 261.721 71.9453C261.31 72.0039 260.91 72.1309 260.519 72.3262C260.129 72.502 259.787 72.7656 259.494 73.1172C259.221 73.4492 259.084 73.8789 259.084 74.4062C259.084 74.7383 259.221 75.2266 259.494 75.8711C259.787 76.5156 260.236 77.3164 260.842 78.2734L269.103 91.0469L276.984 78.8008C277.414 78.1367 277.766 77.541 278.039 77.0137C278.332 76.4668 278.537 75.9785 278.654 75.5488C278.791 75.0996 278.82 74.6895 278.742 74.3184C278.684 73.9277 278.517 73.5566 278.244 73.2051C278.01 72.8145 277.639 72.4922 277.131 72.2383C276.623 71.9648 275.822 71.8281 274.728 71.8281V70.7734H288.557V71.8281H287.824Z" fill="#124733"/>
<path d="M124.601 149.5V148.906C125.267 148.906 125.783 148.87 126.148 148.797C126.523 148.714 126.799 148.557 126.976 148.328C127.153 148.099 127.257 147.776 127.288 147.359C127.33 146.943 127.351 146.401 127.351 145.734V132.984C127.351 132.568 127.33 132.193 127.288 131.859C127.257 131.526 127.184 131.24 127.069 131C126.965 130.76 126.804 130.594 126.585 130.5C126.377 130.396 126.095 130.375 125.741 130.438C125.398 130.49 124.965 130.635 124.444 130.875L124.241 130.375L129.382 127.844H129.929V145.734C129.929 146.411 129.939 146.958 129.96 147.375C129.991 147.792 130.09 148.115 130.257 148.344C130.424 148.562 130.684 148.714 131.038 148.797C131.403 148.87 131.918 148.906 132.585 148.906V149.5H124.601ZM163.932 136.594C163.932 140.083 162.739 143.141 160.354 145.766C160.218 145.922 160.015 146.135 159.744 146.406C159.484 146.677 159.166 146.969 158.791 147.281C158.416 147.594 157.984 147.911 157.494 148.234C157.015 148.547 156.484 148.833 155.901 149.094C155.328 149.354 154.703 149.562 154.026 149.719C153.359 149.885 152.651 149.969 151.901 149.969H151.01V149.375C151.281 149.365 151.64 149.333 152.088 149.281C152.536 149.219 153.026 149.099 153.557 148.922C154.088 148.745 154.635 148.495 155.198 148.172C155.76 147.849 156.291 147.422 156.791 146.891C157.573 146.036 158.281 145.068 158.916 143.984C159.562 142.891 160.062 141.615 160.416 140.156C159.614 140.708 158.843 141.115 158.104 141.375C157.375 141.635 156.666 141.766 155.979 141.766C155.104 141.766 154.333 141.589 153.666 141.234C153 140.87 152.437 140.396 151.979 139.812C151.531 139.219 151.187 138.547 150.948 137.797C150.718 137.036 150.604 136.255 150.604 135.453C150.604 134.339 150.781 133.318 151.135 132.391C151.5 131.453 151.984 130.651 152.588 129.984C153.192 129.307 153.89 128.781 154.682 128.406C155.484 128.031 156.317 127.844 157.182 127.844C157.901 127.844 158.567 127.969 159.182 128.219C159.797 128.458 160.354 128.792 160.854 129.219C161.354 129.635 161.797 130.13 162.182 130.703C162.567 131.266 162.885 131.87 163.135 132.516C163.395 133.161 163.593 133.833 163.729 134.531C163.864 135.229 163.932 135.917 163.932 136.594ZM160.979 135.797C160.979 134.661 160.849 133.656 160.588 132.781C160.328 131.906 159.994 131.177 159.588 130.594C159.192 130.01 158.75 129.573 158.26 129.281C157.77 128.99 157.291 128.854 156.823 128.875C156.354 128.896 155.911 129.016 155.494 129.234C155.078 129.443 154.708 129.755 154.385 130.172C154.073 130.578 153.823 131.089 153.635 131.703C153.458 132.307 153.369 133.016 153.369 133.828C153.369 134.797 153.463 135.682 153.651 136.484C153.838 137.286 154.099 137.974 154.432 138.547C154.776 139.12 155.182 139.568 155.651 139.891C156.13 140.203 156.661 140.359 157.244 140.359C157.557 140.359 157.89 140.318 158.244 140.234C158.599 140.151 158.937 140.042 159.26 139.906C159.593 139.771 159.885 139.625 160.135 139.469C160.395 139.312 160.578 139.167 160.682 139.031C160.765 138.354 160.833 137.745 160.885 137.203C160.948 136.661 160.979 136.193 160.979 135.797ZM191.326 149.5H178.841V148.906C180.675 147.229 182.237 145.714 183.529 144.359C184.831 143.005 185.857 141.781 186.607 140.688C188.107 138.542 188.857 136.604 188.857 134.875C188.857 133.969 188.701 133.219 188.388 132.625C188.076 132.031 187.695 131.557 187.248 131.203C186.81 130.849 186.352 130.604 185.873 130.469C185.404 130.323 185.003 130.25 184.669 130.25C183.919 130.25 183.274 130.38 182.732 130.641C182.201 130.901 181.748 131.219 181.373 131.594C181.008 131.969 180.716 132.365 180.498 132.781C180.279 133.188 180.117 133.536 180.013 133.828H179.466C179.508 133.516 179.576 133.151 179.669 132.734C179.763 132.307 179.904 131.875 180.091 131.438C180.279 130.99 180.518 130.552 180.81 130.125C181.102 129.698 181.461 129.318 181.888 128.984C182.326 128.641 182.836 128.365 183.419 128.156C184.013 127.948 184.695 127.844 185.466 127.844C186.216 127.844 186.956 127.974 187.685 128.234C188.414 128.484 189.06 128.849 189.623 129.328C190.195 129.807 190.654 130.396 190.998 131.094C191.352 131.781 191.529 132.557 191.529 133.422C191.529 134.255 191.373 135.083 191.06 135.906C190.758 136.719 190.378 137.5 189.919 138.25C189.472 139 188.982 139.698 188.451 140.344C187.93 140.979 187.451 141.536 187.013 142.016C185.711 143.432 184.659 144.562 183.857 145.406C183.055 146.25 182.492 146.823 182.169 147.125H187.716C188.518 147.125 189.159 147.104 189.638 147.062C190.117 147.01 190.508 146.922 190.81 146.797C191.123 146.672 191.378 146.5 191.576 146.281C191.784 146.062 192.008 145.781 192.248 145.438H192.826L191.326 149.5ZM221.844 138.719C221.844 139.667 221.777 140.604 221.641 141.531C221.506 142.448 221.303 143.323 221.032 144.156C220.772 144.979 220.443 145.74 220.048 146.438C219.662 147.135 219.209 147.74 218.688 148.25C218.178 148.76 217.605 149.161 216.969 149.453C216.334 149.734 215.636 149.875 214.876 149.875C214.188 149.875 213.542 149.734 212.938 149.453C212.334 149.172 211.782 148.786 211.282 148.297C210.782 147.797 210.334 147.203 209.938 146.516C209.542 145.828 209.209 145.083 208.938 144.281C208.667 143.479 208.459 142.635 208.313 141.75C208.178 140.854 208.11 139.948 208.11 139.031C208.11 137.344 208.298 135.812 208.673 134.438C209.058 133.062 209.568 131.885 210.204 130.906C210.85 129.927 211.589 129.172 212.423 128.641C213.266 128.109 214.141 127.844 215.048 127.844C215.943 127.844 216.798 128.099 217.61 128.609C218.433 129.109 219.157 129.828 219.782 130.766C220.407 131.703 220.907 132.844 221.282 134.188C221.657 135.531 221.844 137.042 221.844 138.719ZM218.782 138.016C218.782 136.609 218.699 135.344 218.532 134.219C218.376 133.083 218.136 132.12 217.813 131.328C217.501 130.536 217.11 129.932 216.641 129.516C216.173 129.089 215.631 128.875 215.016 128.875C214.725 128.875 214.423 128.938 214.11 129.062C213.808 129.188 213.516 129.406 213.235 129.719C212.954 130.021 212.688 130.432 212.438 130.953C212.188 131.464 211.969 132.109 211.782 132.891C211.605 133.672 211.459 134.599 211.344 135.672C211.24 136.734 211.188 137.974 211.188 139.391C211.188 140.964 211.277 142.344 211.454 143.531C211.631 144.719 211.881 145.714 212.204 146.516C212.537 147.307 212.933 147.901 213.391 148.297C213.86 148.693 214.376 148.891 214.938 148.891C215.501 148.891 216.016 148.708 216.485 148.344C216.954 147.979 217.36 147.375 217.704 146.531C218.048 145.688 218.313 144.573 218.501 143.188C218.688 141.792 218.782 140.068 218.782 138.016Z" fill="#124733"/>
</svg>
